<svg version="1.0" xmlns="http://www.w3.org/2000/svg" width="1024.000000pt" height="1024.000000pt" viewBox="0 0 1024.000000 1024.000000" preserveAspectRatio="xMidYMid meet">
  <path d="M 767.7 195.4 C 781.5 199.2 789.1 203.3 796 210.6 C 805.7 221 811 234.6 811 249 C 811 258.5 809 266.6 804.1 278.3 C 796.9 295.2 790.7 320 776.6 387.5 C 754.7 492.8 745.3 546.8 741.6 590 C 736 653.8 736.9 714.8 744 749 C 747.2 764.3 751 791.5 751 798.9 C 751 812.9 745.9 822.2 735 827.8 C 729 830.9 727.9 831.2 721 830.8 C 699.9 829.8 688.4 813.8 680.5 774.7 C 674.8 746.1 673 722.1 672.3 669.5 C 671.9 634.9 672.2 617 673.9 577.5 C 676.6 516.8 678.5 486.8 681.1 463.2 C 682.2 453.1 682.9 444.6 682.6 444.3 C 681.9 443.5 664 445.8 652.5 448.1 C 638.8 450.9 625.4 454.9 606.1 462 C 589.2 468.1 572.3 473.3 556.6 476.9 C 551.8 478 547.6 479.1 547.3 479.4 C 547 479.7 546.7 490.6 546.7 503.7 C 546.6 525.9 546.7 528.4 549.3 540.9 C 553.8 563 552.6 570.5 543.5 579.6 C 533.4 589.7 519.9 594.3 500 594.3 C 492.8 594.4 485.6 593.8 483 593.1 C 476.7 591.3 469 583.2 466 575.4 C 461.4 563.2 460.6 556.2 460.7 529 C 460.7 500.1 461.6 489.2 469.5 418.4 C 477.4 348 479.3 323 479.4 283 L 479.5 259.5 L 482.7 253 C 488.9 240.4 503.8 229.1 519.1 225.5 C 527.4 223.6 542.2 223.6 548.7 225.5 C 551.5 226.3 556.2 228.6 559.1 230.6 C 565.5 234.8 565 234.9 586.4 228 C 594.7 225.3 615 219.7 631.5 215.6 C 648 211.4 667.6 206.5 675 204.5 C 682.4 202.6 695.7 199.6 704.5 197.9 C 713.3 196.2 723.4 194.2 727 193.5 C 737 191.3 756.2 192.2 767.7 195.4 Z M 434.8 296.4 C 448.7 300.1 459.8 311.9 465.6 329.1 C 473.4 352 467.3 366.7 446.7 375.3 C 427.1 383.5 409.4 388.1 383.5 392 C 372.1 393.7 333.3 402.4 332.2 403.4 C 332.1 403.6 333.3 413.6 334.9 425.6 C 342.9 483.9 347.5 528.8 350 571.6 C 352.2 609.5 354 629.3 357 649.5 C 358.9 662.2 365 695.2 365.5 695.8 C 365.7 696 396.8 680.4 434.7 661.2 C 588.6 583 585.3 584.5 602.4 585.2 C 610.3 585.5 612.4 585.9 618.1 588.7 C 634.3 596.7 646 616.1 646 635 C 646 648.8 640.4 661.8 630.1 672.1 C 626.5 675.7 622.1 679.4 620.4 680.3 C 618.8 681.1 612 683.1 605.5 684.5 C 543.7 698.4 480 725.9 427 761.5 C 409.3 773.4 393.2 785.6 385.5 793 C 372 805.9 361.6 810.9 346.5 811.7 C 335.3 812.4 328.2 810.9 318.8 806.3 C 306.4 800.1 296.3 787.8 291.6 773.5 C 288.8 764.7 284 725.9 283 703 C 281.4 667.7 278.5 633.2 269.4 542 C 262.1 468.4 260.4 455.8 253.9 432.4 L 250.8 421.2 L 247.1 420.6 C 235.8 418.8 222.2 407.9 216.7 396.3 C 213.9 390.2 213.5 388.5 213.5 380.5 C 213.5 372.9 213.9 370.7 216.1 366 C 220.5 356.7 230.3 348.3 243.9 342.3 C 252.8 338.3 281.9 327.8 302.5 321 C 321 315 377.7 301 400 297 C 412.6 294.8 427.6 294.5 434.8 296.4 Z M 692.1 280.7 C 687.8 281.5 662.7 291 652.5 295.7 C 647 298.2 634.4 303.2 624.5 306.7 C 606.1 313.4 578.9 325.2 576.4 327.7 C 575.6 328.5 575 330.4 575 331.9 C 575 336.6 570.2 364.1 567.2 376.2 C 565.6 382.7 564.5 388 564.7 388 C 566.6 388 580.6 383.9 597.4 378.4 C 632.8 366.7 653.2 363.6 678.6 365.9 C 686.1 366.5 692.5 366.9 692.7 366.6 C 693 366.4 694.7 357.2 696.5 346.3 C 698.3 335.4 700.7 322.9 701.8 318.5 C 704.1 309.3 706 295.9 706 288.8 C 706 281 702.2 278.8 692.1 280.7 Z" style="stroke: none;fill:#0A0A0A;"></path>
</svg>