<svg version="1.0" xmlns="http://www.w3.org/2000/svg" width="1024.000000pt" height="1024.000000pt" viewBox="0 0 1024.000000 1024.000000" preserveAspectRatio="xMidYMid meet">
  <path d="M 915.185 12.907 C 936.965 18.905 948.965 25.376 959.855 36.898 C 975.165 53.313 983.525 74.778 983.525 97.506 C 983.525 112.5 980.375 125.284 972.635 143.751 C 961.275 170.425 951.485 209.567 929.235 316.105 C 894.665 482.303 879.835 567.533 873.995 635.717 C 865.155 736.414 866.575 832.689 877.775 886.669 C 882.835 910.819 888.825 953.749 888.825 965.429 C 888.825 987.529 880.775 1002.21 863.575 1011.05 C 854.105 1015.94 852.365 1016.41 841.475 1015.78 C 808.175 1014.2 790.024 988.949 777.555 927.239 C 768.559 882.089 765.718 844.219 764.613 761.194 C 763.982 706.584 764.455 678.331 767.138 615.987 C 771.4 520.183 774.399 472.833 778.502 435.584 C 780.239 419.643 781.343 406.227 780.87 405.754 C 779.765 404.491 751.513 408.121 733.362 411.751 C 711.739 416.171 690.589 422.484 660.128 433.69 C 633.454 443.318 606.78 451.525 582 457.207 C 574.424 458.944 567.795 460.68 567.322 461.153 C 566.848 461.627 566.375 478.83 566.375 499.507 C 566.217 534.546 566.375 538.491 570.478 558.221 C 577.581 593.102 575.687 604.939 561.324 619.302 C 545.383 635.243 524.076 642.503 492.667 642.503 C 481.303 642.661 469.939 641.714 465.835 640.609 C 455.892 637.768 443.738 624.984 439.003 612.673 C 431.743 593.417 430.481 582.369 430.638 539.438 C 430.638 493.825 432.059 476.621 444.528 364.875 C 456.996 253.761 459.995 214.302 460.153 151.169 L 460.311 114.078 L 465.362 103.819 C 475.147 83.932 498.664 66.097 522.813 60.415 C 535.913 57.416 559.272 57.416 569.531 60.415 C 573.951 61.678 581.369 65.308 585.946 68.465 C 596.047 75.094 595.258 75.251 629.035 64.361 C 642.135 60.099 674.175 51.261 700.217 44.79 C 726.26 38.161 757.195 30.427 768.875 27.27 C 780.554 24.271 801.546 19.536 815.435 16.853 C 829.325 14.17 845.265 11.013 850.945 9.908 C 866.735 6.436 897.035 7.857 915.185 12.907 Z M 389.76 172.319 C 411.698 178.158 429.218 196.783 438.372 223.93 C 450.683 260.074 441.055 283.275 408.542 296.849 C 377.606 309.791 349.67 317.052 308.791 323.207 C 290.798 325.89 229.559 339.622 227.823 341.2 C 227.665 341.516 229.559 357.299 232.084 376.239 C 244.711 468.256 251.971 539.123 255.917 606.675 C 259.389 666.494 262.23 697.745 266.965 729.627 C 269.964 749.672 279.592 801.757 280.381 802.704 C 280.697 803.02 329.783 778.398 389.602 748.094 C 632.507 624.668 627.298 627.036 654.288 628.141 C 666.757 628.614 670.071 629.245 679.068 633.665 C 704.637 646.291 723.103 676.911 723.103 706.741 C 723.103 728.522 714.264 749.041 698.008 765.297 C 692.326 770.979 685.381 776.819 682.698 778.24 C 680.172 779.502 669.44 782.659 659.181 784.869 C 561.64 806.808 461.1 850.209 377.449 906.399 C 349.512 925.179 324.101 944.439 311.948 956.119 C 290.64 976.479 274.226 984.369 250.393 985.629 C 232.716 986.739 221.51 984.369 206.673 977.109 C 187.102 967.329 171.161 947.909 163.743 925.339 C 159.323 911.449 151.747 850.209 150.169 814.068 C 147.644 758.353 143.067 703.9 128.704 559.957 C 117.182 443.792 114.499 423.905 104.24 386.972 L 99.347 369.294 L 93.507 368.347 C 75.672 365.506 54.206 348.303 45.526 329.994 C 41.106 320.366 40.475 317.683 40.475 305.056 C 40.475 293.061 41.106 289.589 44.579 282.17 C 51.523 267.492 66.991 254.234 88.456 244.764 C 102.503 238.451 148.433 221.878 180.946 211.146 C 210.146 201.676 299.637 179.579 334.834 173.266 C 354.721 169.793 378.396 169.32 389.76 172.319 Z M 795.864 147.539 C 789.077 148.802 749.461 163.796 733.362 171.214 C 724.681 175.16 704.794 183.051 689.169 188.575 C 660.128 199.15 617.197 217.775 613.251 221.72 C 611.989 222.983 611.042 225.982 611.042 228.349 C 611.042 235.768 603.466 279.172 598.731 298.269 C 596.205 308.529 594.469 316.894 594.785 316.894 C 597.784 316.894 619.88 310.423 646.396 301.742 C 702.269 283.275 734.467 278.382 774.557 282.013 C 786.394 282.96 796.495 283.591 796.811 283.117 C 797.285 282.802 799.968 268.281 802.809 251.077 C 805.65 233.874 809.438 214.144 811.174 207.2 C 814.804 192.679 817.803 171.53 817.803 160.323 C 817.803 148.012 811.805 144.54 795.864 147.539 Z" style="stroke: none;fill:#FFFFFF;"></path>
</svg>